<svg width="38" height="38" viewBox="0 0 38 38" fill="none" xmlns="http://www.w3.org/2000/svg">
<path fill-rule="evenodd" clip-rule="evenodd" d="M11.8195 1.688C13.6768 1.6025 14.2689 1.5835 18.9999 1.5835C23.7309 1.5835 24.3231 1.60408 26.1788 1.688C28.0344 1.77191 29.3011 2.068 30.4094 2.49708C31.57 2.93566 32.6229 3.62125 33.4937 4.50791C34.3804 5.37716 35.0644 6.4285 35.5014 7.59066C35.9321 8.699 36.2266 9.96566 36.3121 11.8182C36.3976 13.6786 36.4166 14.2707 36.4166 19.0002C36.4166 23.7312 36.396 24.3233 36.3121 26.1806C36.2282 28.0331 35.9321 29.2997 35.5014 30.4081C35.0644 31.5704 34.3793 32.6235 33.4937 33.494C32.6229 34.3807 31.57 35.0647 30.4094 35.5017C29.3011 35.9323 28.0344 36.2268 26.1819 36.3123C24.3231 36.3978 23.7309 36.4168 18.9999 36.4168C14.2689 36.4168 13.6768 36.3962 11.8195 36.3123C9.967 36.2284 8.70034 35.9323 7.592 35.5017C6.42971 35.0646 5.37663 34.3795 4.50609 33.494C3.62002 32.6242 2.93433 31.5716 2.49684 30.4097C2.06775 29.3013 1.77325 28.0347 1.68775 26.1822C1.60225 24.3217 1.58325 23.7296 1.58325 19.0002C1.58325 14.2692 1.60384 13.677 1.68775 11.8213C1.77167 9.96566 2.06775 8.699 2.49684 7.59066C2.93498 6.42863 3.62119 5.37608 4.50767 4.50633C5.37698 3.62046 6.429 2.93478 7.59042 2.49708C8.69875 2.068 9.96542 1.7735 11.8179 1.688H11.8195ZM26.0378 4.823C24.2012 4.73908 23.6502 4.72166 18.9999 4.72166C14.3497 4.72166 13.7987 4.73908 11.962 4.823C10.2631 4.90058 9.34159 5.184 8.72725 5.42308C7.915 5.73975 7.33392 6.115 6.72434 6.72458C6.14649 7.28674 5.70179 7.97111 5.42284 8.7275C5.18375 9.34183 4.90034 10.2633 4.82275 11.9622C4.73884 13.7989 4.72142 14.3499 4.72142 19.0002C4.72142 23.6504 4.73884 24.2014 4.82275 26.0381C4.90034 27.737 5.18375 28.6585 5.42284 29.2728C5.7015 30.0281 6.14642 30.7137 6.72434 31.2757C7.28642 31.8537 7.972 32.2986 8.72725 32.5772C9.34159 32.8163 10.2631 33.0997 11.962 33.1773C13.7987 33.2612 14.3481 33.2787 18.9999 33.2787C23.6518 33.2787 24.2012 33.2612 26.0378 33.1773C27.7367 33.0997 28.6583 32.8163 29.2726 32.5772C30.0848 32.2606 30.6659 31.8853 31.2755 31.2757C31.8534 30.7137 32.2983 30.0281 32.577 29.2728C32.8161 28.6585 33.0995 27.737 33.1771 26.0381C33.261 24.2014 33.2784 23.6504 33.2784 19.0002C33.2784 14.3499 33.261 13.7989 33.1771 11.9622C33.0995 10.2633 32.8161 9.34183 32.577 8.7275C32.2603 7.91525 31.8851 7.33416 31.2755 6.72458C30.7133 6.14678 30.0289 5.70208 29.2726 5.42308C28.6583 5.184 27.7367 4.90058 26.0378 4.823ZM16.7753 24.3692C18.0177 24.8864 19.4011 24.9562 20.6892 24.5667C21.9773 24.1772 23.0903 23.3526 23.838 22.2337C24.5856 21.1148 24.9217 19.771 24.7887 18.4319C24.6556 17.0928 24.0618 15.8414 23.1087 14.8914C22.501 14.2842 21.7663 13.8192 20.9574 13.53C20.1486 13.2408 19.2856 13.1345 18.4307 13.2188C17.5758 13.3031 16.7502 13.5759 16.0134 14.0176C15.2766 14.4593 14.6469 15.0588 14.1696 15.7731C13.6924 16.4873 13.3794 17.2985 13.2532 18.1483C13.1271 18.998 13.1909 19.8651 13.4401 20.6872C13.6893 21.5093 14.1177 22.266 14.6944 22.9026C15.2711 23.5393 15.9818 24.0402 16.7753 24.3692ZM12.6698 12.67C13.501 11.8387 14.4879 11.1793 15.5741 10.7294C16.6602 10.2795 17.8243 10.048 18.9999 10.048C20.1755 10.048 21.3396 10.2795 22.4258 10.7294C23.5119 11.1793 24.4988 11.8387 25.3301 12.67C26.1614 13.5013 26.8208 14.4882 27.2707 15.5743C27.7206 16.6604 27.9521 17.8245 27.9521 19.0002C27.9521 20.1758 27.7206 21.3399 27.2707 22.426C26.8208 23.5122 26.1614 24.499 25.3301 25.3303C23.6512 27.0092 21.3742 27.9524 18.9999 27.9524C16.6256 27.9524 14.3486 27.0092 12.6698 25.3303C10.9909 23.6515 10.0477 21.3744 10.0477 19.0002C10.0477 16.6259 10.9909 14.3489 12.6698 12.67ZM29.9376 11.3812C30.1436 11.1868 30.3085 10.9532 30.4226 10.694C30.5366 10.4348 30.5975 10.1553 30.6017 9.87214C30.6058 9.58897 30.5531 9.30786 30.4466 9.04544C30.3401 8.78303 30.1821 8.54464 29.9819 8.34439C29.7816 8.14414 29.5432 7.98611 29.2808 7.87965C29.0184 7.77319 28.7373 7.72046 28.4541 7.72459C28.1709 7.72871 27.8915 7.78961 27.6323 7.90368C27.3731 8.01775 27.1394 8.18266 26.9451 8.38866C26.5672 8.78929 26.3603 9.32144 26.3683 9.87214C26.3763 10.4228 26.5986 10.9487 26.9881 11.3382C27.3775 11.7276 27.9034 11.9499 28.4541 11.958C29.0048 11.966 29.537 11.7591 29.9376 11.3812Z" fill="white"/>
</svg>
