<svg width="32" height="32" viewBox="0 0 32 32" fill="none" xmlns="http://www.w3.org/2000/svg">
<path d="M28.3782 11.0345L20.4438 9.88141L16.8969 2.69078C16.8001 2.49391 16.6407 2.33453 16.4438 2.23766C15.9501 1.99391 15.3501 2.19703 15.1032 2.69078L11.5563 9.88141L3.62193 11.0345C3.40318 11.0658 3.20318 11.1689 3.05006 11.3252C2.86494 11.5154 2.76293 11.7714 2.76645 12.0369C2.76996 12.3023 2.87871 12.5555 3.06881 12.7408L8.80943 18.3377L7.45318 26.2408C7.42138 26.4246 7.44172 26.6137 7.51191 26.7866C7.58209 26.9594 7.69931 27.1092 7.85027 27.2188C8.00123 27.3285 8.17989 27.3936 8.366 27.4069C8.5521 27.4202 8.73819 27.381 8.90318 27.2939L16.0001 23.5627L23.0969 27.2939C23.2907 27.397 23.5157 27.4314 23.7313 27.3939C24.2751 27.3002 24.6407 26.7845 24.5469 26.2408L23.1907 18.3377L28.9313 12.7408C29.0876 12.5877 29.1907 12.3877 29.2219 12.1689C29.3063 11.622 28.9251 11.1158 28.3782 11.0345Z" fill="white"/>
</svg>
