<svg width="32" height="32" viewBox="0 0 32 32" fill="none" xmlns="http://www.w3.org/2000/svg">
<path d="M28.3782 11.0343L20.4438 9.88115L16.897 2.69054C16.8001 2.49366 16.6407 2.33429 16.4438 2.23741C15.9501 1.99366 15.3501 2.19679 15.1032 2.69054L11.5563 9.88115L3.62194 11.0343C3.40318 11.0655 3.20318 11.1687 3.05006 11.3249C2.86494 11.5152 2.76293 11.7712 2.76645 12.0366C2.76996 12.302 2.87871 12.5552 3.06881 12.7405L8.80944 18.3374L7.45319 26.2405C7.42139 26.4244 7.44173 26.6134 7.51192 26.7863C7.5821 26.9592 7.69932 27.1089 7.85028 27.2186C8.00124 27.3282 8.1799 27.3933 8.366 27.4066C8.55211 27.4199 8.7382 27.3807 8.90319 27.2936L16.0001 23.5624L23.097 27.2936C23.2907 27.3968 23.5157 27.4311 23.7313 27.3936C24.2751 27.2999 24.6407 26.7843 24.547 26.2405L23.1907 18.3374L28.9314 12.7405C29.0876 12.5874 29.1907 12.3874 29.222 12.1687C29.3064 11.6218 28.9251 11.1155 28.3782 11.0343ZM20.7751 17.5499L21.9032 24.1218L16.0001 21.0218L10.0969 24.1249L11.2251 17.553L6.45006 12.8968L13.0501 11.9374L16.0001 5.95928L18.9501 11.9374L25.5501 12.8968L20.7751 17.5499Z" fill="white"/>
</svg>
